<?xml version="1.0" encoding="UTF-8"?>
<svg id="Layer_1" xmlns="http://www.w3.org/2000/svg" version="1.1" viewBox="0 0 873.8 396.9">
  <!-- Generator: Adobe Illustrator 29.5.1, SVG Export Plug-In . SVG Version: 2.1.0 Build 141)  -->
  <defs>
    <style>
      .st0, .st1 {
        fill: #fff200;
      }

      .st1, .st2 {
        fill-rule: evenodd;
      }

      .st2 {
        fill: #91278f;
      }

      .st3 {
        fill: none;
        stroke: #f9ec1e;
        stroke-miterlimit: 22.9;
        stroke-width: 0px;
      }
    </style>
  </defs>
  <path class="st3" d="M436.9,0C678.2,0,873.8,88.9,873.8,198.5s-195.6,198.5-436.9,198.5S0,308.1,0,198.5,195.6,0,436.9,0h0Z"/>
  <g>
    <g>
      <path class="st1" d="M436.9,0C678.2,0,873.8,88.9,873.8,198.5s-195.6,198.5-436.9,198.5S0,308.1,0,198.5,195.6,0,436.9,0h0Z"/>
      <path class="st2" d="M436.9,26.7c221,0,400.2,76.9,400.2,171.8s-179.2,171.8-400.2,171.8S36.7,293.3,36.7,198.5,215.9,26.7,436.9,26.7"/>
    </g>
    <g>
      <g>
        <path class="st1" d="M136.1,100.2h120.8c28,0,60.4,13.5,62.1,50.1,1.8,38.1-30.7,57.7-56.8,57.7h-20.2l65.1,64.1c5.1,5,5.8,14,1.5,19.8h0c-4.9,5.3-12,6.7-17,1.5l-90.8-91.5c-8.9-9-7.6-20.1.7-20.1h49.5c18.9-.9,44.2-2.5,41.8-30.4-1.7-19.4-17.5-24.8-36.2-25.6-15.8-.7-33.5-.7-46.5-.7h-74c-6.9,0-12.5-3.7-12.5-11.3h0c0-7.6,5.6-13.8,12.5-13.8"/>
        <path class="st1" d="M163.8,186.5h0c4.8-5.5,12.8-5.7,17.8-.5l83.8,86.4c5.1,5.2,5.4,14,.6,19.5-4.7,5.5-12.7,5.7-17.8.5l-83.7-86.5c-5.1-5.2-5.3-14-.6-19.5"/>
        <path class="st1" d="M123.6,186.5h0c4.8-5.5,12.8-5.7,17.8-.5l83.8,86.4c5,5.2,5.3,14,.6,19.5-4.8,5.5-12.8,5.7-17.8.5l-83.7-86.5c-5.1-5.2-5.4-14-.6-19.5"/>
      </g>
      <g>
        <path class="st0" d="M324.9,103h20.9c14,0,23.4.9,28.3,2.8,4.9,1.8,9,6.5,12.1,14s4.7,19.5,4.7,36-1.1,25.2-3.3,30.3c-2.2,5.2-6.5,8.3-13,9.3,5.9,2.5,9.8,5.8,11.8,9.9,2,4.1,3.2,7.9,3.8,11.4s.8,13,.8,28.6v51h-27.5v-64.3c0-10.3-.5-16.8-1.4-19.2-1-2.5-3.5-3.7-7.5-3.7v87.2h-29.6V102.9h0s0,0,0,0ZM354.5,136v43c3.3,0,5.7-.8,7-2.3s2-6.6,2-15.1v-10.6c0-6.1-.6-10.2-1.9-12.1-1.3-1.9-3.6-2.9-7-2.9h0Z"/>
        <path class="st0" d="M453.4,103l16.9,193.4h-30.2l-1.6-34.8h-10.6l-1.8,34.8h-30.6l15.1-193.4h42.7ZM437.8,227.3c-1.5-21.9-3-49-4.5-81.2-3,37-4.9,64.1-5.7,81.2h10.2Z"/>
        <g>
          <path class="st0" d="M529.7,103l-21.6,123.4v70h-27.4v-70l-20.8-123.4h27.2c4.2,37.8,6.6,63.1,7.2,76.2,1.6-20.6,4.4-46,8.2-76.2h27.2Z"/>
          <path class="st0" d="M602.7,103v193.4h-29.6v-81.2h-8.8v81.2h-29.5V103h29.5v69.2h8.8v-69.2h29.6Z"/>
          <path class="st0" d="M665.6,103l16.9,193.4h-30.2l-1.6-34.8h-10.6l-1.8,34.8h-30.6l15.1-193.4h42.8ZM650,227.3c-1.5-21.9-3-49-4.5-81.2-3,37-4.9,64.1-5.7,81.2h10.2Z"/>
          <path class="st0" d="M687.6,103h20.9c14,0,23.4.9,28.3,2.8,4.9,1.8,9,6.5,12.1,14s4.7,19.5,4.7,36-1.1,25.2-3.3,30.3c-2.2,5.2-6.5,8.3-13,9.3,5.8,2.5,9.8,5.8,11.8,9.9,2,4.1,3.2,7.9,3.8,11.4s.8,13,.8,28.6v51h-27.5v-64.3c0-10.3-.5-16.8-1.4-19.2-1-2.5-3.5-3.7-7.5-3.7v87.2h-29.5V102.9h0s0,0,0,0ZM717.1,136v43c3.3,0,5.7-.8,7-2.3,1.3-1.5,2-6.6,2-15.1v-10.6c0-6.1-.6-10.2-1.9-12.1s-3.7-2.9-7-2.9h0Z"/>
        </g>
      </g>
    </g>
  </g>
  <g>
    <path d="M823.3,47.9h2.7c1.1,0,1.9-.3,2.5-1,.6-.7.9-1.6.9-2.9s-.3-2.3-.9-3c-.6-.8-1.3-1.1-2.4-1.1h-2.7v8h0ZM823.3,52v10.9h-4.9v-27h7.6c2.5,0,4.6.7,6,2.1,1.5,1.4,2.2,3.4,2.2,5.9s-.3,2.6-.9,3.6c-.6,1-1.5,1.9-2.7,2.5,1.3.5,2.3,1.2,2.9,2.3.6,1.1.9,2.4.9,4.1v1.9c0,.8,0,1.5.2,2.4.1.8.5,1.5.9,1.8v.4h-5.2c-.4-.4-.7-1.1-.8-2,0-.9-.2-1.8-.2-2.7v-1.9c0-1.4-.3-2.5-.8-3.2-.6-.8-1.3-1.1-2.4-1.1h-3,0Z"/>
    <path d="M827,28.9c-11.2,0-20.4,9.1-20.4,20.4s9.1,20.4,20.4,20.4,20.4-9.1,20.4-20.4-9.2-20.4-20.4-20.4M827,24.5c13.7,0,24.8,11.1,24.8,24.8s-11.1,24.8-24.8,24.8-24.8-11.1-24.8-24.8,11.1-24.8,24.8-24.8Z"/>
  </g>
</svg>